<?xml version="1.0" encoding="UTF-8"?>
<svg
    xmlns="http://www.w3.org/2000/svg"
    width="256"
    height="256"
    viewBox="0 0 16 16">
    <defs>
        <linearGradient id="bgGradient" x1="0" y1="0" x2="0" y2="15" gradientUnits="userSpaceOnUse"><stop offset="0%" stop-color="#fffeb8"/><stop offset="100%" stop-color="#ff0000"/></linearGradient>
        <mask id="cutout" maskUnits="userSpaceOnUse">
            <rect x="0" y="0" width="16" height="16" fill="black"/>
            <rect x="0"  y="12"  width="1" height="1" fill="white"/>
            <rect x="0"  y="13"  width="1" height="1" fill="white"/>
            <rect x="0"  y="14"  width="1" height="1" fill="white"/>
            <rect x="1"  y="0"  width="1" height="1" fill="white"/>
            <rect x="1"  y="1"  width="1" height="1" fill="white"/>
            <rect x="1"  y="2"  width="1" height="1" fill="white"/>
            <rect x="1"  y="11"  width="1" height="1" fill="white"/>
            <rect x="1"  y="15"  width="1" height="1" fill="white"/>
            <rect x="2"  y="0"  width="1" height="1" fill="white"/>
            <rect x="2"  y="2"  width="1" height="1" fill="white"/>
            <rect x="2"  y="3"  width="1" height="1" fill="white"/>
            <rect x="2"  y="4"  width="1" height="1" fill="white"/>
            <rect x="2"  y="5"  width="1" height="1" fill="white"/>
            <rect x="2"  y="6"  width="1" height="1" fill="white"/>
            <rect x="2"  y="7"  width="1" height="1" fill="white"/>
            <rect x="2"  y="8"  width="1" height="1" fill="white"/>
            <rect x="2"  y="9"  width="1" height="1" fill="white"/>
            <rect x="2"  y="10"  width="1" height="1" fill="white"/>
            <rect x="2"  y="11"  width="1" height="1" fill="white"/>
            <rect x="2"  y="13"  width="1" height="1" fill="white"/>
            <rect x="2"  y="15"  width="1" height="1" fill="white"/>
            <rect x="3"  y="0"  width="1" height="1" fill="white"/>
            <rect x="3"  y="1"  width="1" height="1" fill="white"/>
            <rect x="3"  y="2"  width="1" height="1" fill="white"/>
            <rect x="3"  y="11"  width="1" height="1" fill="white"/>
            <rect x="3"  y="15"  width="1" height="1" fill="white"/>
            <rect x="4"  y="3"  width="1" height="1" fill="white"/>
            <rect x="4"  y="4"  width="1" height="1" fill="white"/>
            <rect x="4"  y="5"  width="1" height="1" fill="white"/>
            <rect x="4"  y="12"  width="1" height="1" fill="white"/>
            <rect x="4"  y="13"  width="1" height="1" fill="white"/>
            <rect x="4"  y="14"  width="1" height="1" fill="white"/>
            <rect x="5"  y="1"  width="1" height="1" fill="white"/>
            <rect x="5"  y="3"  width="1" height="1" fill="white"/>
            <rect x="5"  y="5"  width="1" height="1" fill="white"/>
            <rect x="5"  y="10"  width="1" height="1" fill="white"/>
            <rect x="5"  y="13"  width="1" height="1" fill="white"/>
            <rect x="6"  y="3"  width="1" height="1" fill="white"/>
            <rect x="6"  y="4"  width="1" height="1" fill="white"/>
            <rect x="6"  y="5"  width="1" height="1" fill="white"/>
            <rect x="6"  y="8"  width="1" height="1" fill="white"/>
            <rect x="6"  y="9"  width="1" height="1" fill="white"/>
            <rect x="6"  y="13"  width="1" height="1" fill="white"/>
            <rect x="7"  y="0"  width="1" height="1" fill="white"/>
            <rect x="7"  y="1"  width="1" height="1" fill="white"/>
            <rect x="7"  y="2"  width="1" height="1" fill="white"/>
            <rect x="7"  y="7"  width="1" height="1" fill="white"/>
            <rect x="7"  y="8"  width="1" height="1" fill="white"/>
            <rect x="7"  y="9"  width="1" height="1" fill="white"/>
            <rect x="7"  y="13"  width="1" height="1" fill="white"/>
            <rect x="8"  y="0"  width="1" height="1" fill="white"/>
            <rect x="8"  y="2"  width="1" height="1" fill="white"/>
            <rect x="8"  y="6"  width="1" height="1" fill="white"/>
            <rect x="8"  y="8"  width="1" height="1" fill="white"/>
            <rect x="8"  y="13"  width="1" height="1" fill="white"/>
            <rect x="9"  y="0"  width="1" height="1" fill="white"/>
            <rect x="9"  y="1"  width="1" height="1" fill="white"/>
            <rect x="9"  y="2"  width="1" height="1" fill="white"/>
            <rect x="9"  y="5"  width="1" height="1" fill="white"/>
            <rect x="9"  y="6"  width="1" height="1" fill="white"/>
            <rect x="9"  y="7"  width="1" height="1" fill="white"/>
            <rect x="9"  y="13"  width="1" height="1" fill="white"/>
            <rect x="10"  y="4"  width="1" height="1" fill="white"/>
            <rect x="10"  y="6"  width="1" height="1" fill="white"/>
            <rect x="10"  y="9"  width="1" height="1" fill="white"/>
            <rect x="10"  y="10"  width="1" height="1" fill="white"/>
            <rect x="10"  y="11"  width="1" height="1" fill="white"/>
            <rect x="10"  y="13"  width="1" height="1" fill="white"/>
            <rect x="11"  y="3"  width="1" height="1" fill="white"/>
            <rect x="11"  y="4"  width="1" height="1" fill="white"/>
            <rect x="11"  y="5"  width="1" height="1" fill="white"/>
            <rect x="11"  y="9"  width="1" height="1" fill="white"/>
            <rect x="11"  y="11"  width="1" height="1" fill="white"/>
            <rect x="11"  y="13"  width="1" height="1" fill="white"/>
            <rect x="12"  y="2"  width="1" height="1" fill="white"/>
            <rect x="12"  y="4"  width="1" height="1" fill="white"/>
            <rect x="12"  y="9"  width="1" height="1" fill="white"/>
            <rect x="12"  y="10"  width="1" height="1" fill="white"/>
            <rect x="12"  y="11"  width="1" height="1" fill="white"/>
            <rect x="12"  y="13"  width="1" height="1" fill="white"/>
            <rect x="13"  y="1"  width="1" height="1" fill="white"/>
            <rect x="13"  y="2"  width="1" height="1" fill="white"/>
            <rect x="13"  y="3"  width="1" height="1" fill="white"/>
            <rect x="13"  y="6"  width="1" height="1" fill="white"/>
            <rect x="13"  y="7"  width="1" height="1" fill="white"/>
            <rect x="13"  y="8"  width="1" height="1" fill="white"/>
            <rect x="13"  y="12"  width="1" height="1" fill="white"/>
            <rect x="13"  y="13"  width="1" height="1" fill="white"/>
            <rect x="13"  y="14"  width="1" height="1" fill="white"/>
            <rect x="14"  y="2"  width="1" height="1" fill="white"/>
            <rect x="14"  y="6"  width="1" height="1" fill="white"/>
            <rect x="14"  y="8"  width="1" height="1" fill="white"/>
            <rect x="14"  y="10"  width="1" height="1" fill="white"/>
            <rect x="14"  y="12"  width="1" height="1" fill="white"/>
            <rect x="14"  y="14"  width="1" height="1" fill="white"/>
            <rect x="15"  y="6"  width="1" height="1" fill="white"/>
            <rect x="15"  y="7"  width="1" height="1" fill="white"/>
            <rect x="15"  y="8"  width="1" height="1" fill="white"/>
            <rect x="15"  y="12"  width="1" height="1" fill="white"/>
            <rect x="15"  y="13"  width="1" height="1" fill="white"/>
            <rect x="15"  y="14"  width="1" height="1" fill="white"/>
        </mask>
    </defs>
    <rect
        x="0"
        y="0"
        width="16"
        height="16"
        fill="url(#bgGradient)"
        mask="url(#cutout)"/>
    </svg>
