<svg xmlns="http://www.w3.org/2000/svg" width="256" height="256" viewBox="0 0 16 16"><defs><linearGradient id="a" x1="0" x2="0" y1="0" y2="15" gradientUnits="userSpaceOnUse"><stop offset="0%" stop-color="#fffeb8"/><stop offset="100%" stop-color="red"/></linearGradient><mask id="b" maskUnits="userSpaceOnUse"><path d="M0 0h16v16H0z"/><path fill="#fff" d="M0 12h1v1H0zm0 1h1v1H0zm0 1h1v1H0zM1 0h1v1H1zm0 1h1v1H1zm0 1h1v1H1zm0 9h1v1H1zm0 4h1v1H1zM2 0h1v1H2zm0 2h1v1H2zm0 1h1v1H2zm0 1h1v1H2zm0 1h1v1H2zm0 1h1v1H2zm0 1h1v1H2zm0 1h1v1H2zm0 1h1v1H2zm0 1h1v1H2zm0 1h1v1H2zm0 2h1v1H2zm0 2h1v1H2zM3 0h1v1H3zm0 1h1v1H3zm0 1h1v1H3zm0 9h1v1H3zm0 4h1v1H3zM4 3h1v1H4zm0 1h1v1H4zm0 1h1v1H4zm0 7h1v1H4zm0 1h1v1H4zm0 1h1v1H4zM5 1h1v1H5zm0 2h1v1H5zm0 2h1v1H5zm0 5h1v1H5zm0 3h1v1H5zM6 3h1v1H6zm0 1h1v1H6zm0 1h1v1H6zm0 3h1v1H6zm0 1h1v1H6zm0 4h1v1H6zM7 0h1v1H7zm0 1h1v1H7zm0 1h1v1H7zm0 5h1v1H7zm0 1h1v1H7zm0 1h1v1H7zm0 4h1v1H7zM8 0h1v1H8zm0 2h1v1H8zm0 4h1v1H8zm0 2h1v1H8zm0 5h1v1H8zM9 0h1v1H9zm0 1h1v1H9zm0 1h1v1H9zm0 3h1v1H9zm0 1h1v1H9zm0 1h1v1H9zm0 6h1v1H9zm1-9h1v1h-1zm0 2h1v1h-1zm0 3h1v1h-1zm0 1h1v1h-1zm0 1h1v1h-1zm0 2h1v1h-1zm1-10h1v1h-1zm0 1h1v1h-1zm0 1h1v1h-1zm0 4h1v1h-1zm0 2h1v1h-1zm0 2h1v1h-1zm1-11h1v1h-1zm0 2h1v1h-1zm0 5h1v1h-1zm0 1h1v1h-1zm0 1h1v1h-1zm0 2h1v1h-1zm1-12h1v1h-1zm0 1h1v1h-1zm0 1h1v1h-1zm0 3h1v1h-1zm0 1h1v1h-1zm0 1h1v1h-1zm0 4h1v1h-1zm0 1h1v1h-1zm0 1h1v1h-1zm1-12h1v1h-1zm0 4h1v1h-1zm0 2h1v1h-1zm0 2h1v1h-1zm0 2h1v1h-1zm0 2h1v1h-1zm1-8h1v1h-1zm0 1h1v1h-1zm0 1h1v1h-1zm0 4h1v1h-1zm0 1h1v1h-1zm0 1h1v1h-1z"/></mask></defs><path fill="url(#a)" d="M0 0h16v16H0z" mask="url(#b)"/></svg>